<svg width="531" height="430" viewBox="0 0 531 430" fill="none" xmlns="http://www.w3.org/2000/svg">
<mask id="mask0_205_1219" style="mask-type:luminance" maskUnits="userSpaceOnUse" x="248" y="335" width="281" height="51">
<path d="M248.355 335.962H528.385V385.86H248.355V335.962Z" fill="white"/>
</mask>
<g mask="url(#mask0_205_1219)">
<mask id="mask1_205_1219" style="mask-type:luminance" maskUnits="userSpaceOnUse" x="-161" y="-184" width="850" height="865">
<path d="M688.458 -183.164H-160.117V680.447H688.458V-183.164Z" fill="black" fill-opacity="0.988"/>
</mask>
<g mask="url(#mask1_205_1219)">
<mask id="mask2_205_1219" style="mask-type:luminance" maskUnits="userSpaceOnUse" x="248" y="335" width="282" height="51">
<path d="M529.114 335.962H248.141V385.86H529.114V335.962Z" fill="white"/>
</mask>
<g mask="url(#mask2_205_1219)">
<mask id="mask3_205_1219" style="mask-type:luminance" maskUnits="userSpaceOnUse" x="248" y="337" width="280" height="49">
<path d="M248.355 337.882H527.228V385.32H248.355V337.882Z" fill="white"/>
</mask>
<g mask="url(#mask3_205_1219)">
<path d="M525.998 350.73C523.67 340.55 512.754 334.185 504.658 340.243C502.007 342.237 500.408 346.083 501.167 349.658C500.695 342.784 504.806 338.908 510.669 339.546C520.459 340.707 526.698 355.626 520.547 364.734C512.783 379.84 476.947 374.697 462.362 373.025C436.404 369.397 412.995 360.011 387.095 353.984C357.985 347.26 327.526 344.441 298.275 351.69C285.171 354.989 249.747 366.548 249.224 384.368C250.417 367.68 278.762 360.026 290.577 357.238C322.06 350.341 354.383 356.435 385.298 364.134C403.367 368.842 423.101 376.062 442.481 380.215C462.259 383.776 495.767 387.262 513.093 374.945C519.545 369.644 527.979 360.678 525.998 350.73Z" fill="white" fill-opacity="0.05"/>
</g>
</g>
</g>
</g>
<path d="M263.235 136.589C252.171 150.307 239.384 165.51 224.872 182.198C210.376 198.908 194.745 214.471 177.994 228.887C161.237 243.295 143.617 255.343 125.135 265.021C106.646 274.691 87.907 279.534 68.9172 279.534C56.8147 279.534 46.3549 276.453 37.5376 270.298C28.7352 264.136 21.5679 256.4 16.0286 247.089C10.5041 237.77 6.4527 227.485 3.85984 216.233C1.2817 204.973 0 194.08 0 183.547C0 173.689 1.2817 162.272 3.85984 149.273C6.4527 136.259 10.1652 122.99 14.9974 109.451C19.8443 95.9193 25.7224 82.5528 32.6171 69.3588C39.5265 56.1647 47.3051 44.47 55.9529 34.2746C64.5933 24.0792 74.0882 15.8254 84.445 9.50572C94.8164 3.17107 105.696 0 117.092 0C125.047 0 132.56 1.94163 139.632 5.81738C146.718 9.67814 152.935 14.7758 158.283 21.1105C163.645 27.4302 167.873 34.4545 170.982 42.191C174.105 49.9275 175.667 57.664 175.667 65.4006C175.667 68.924 174.282 70.6782 171.512 70.6782C169.781 70.6782 168.396 68.924 167.358 65.4006C166.334 61.8846 165.649 59.5982 165.295 58.5336C163.233 52.5588 161.156 46.5016 159.078 40.3618C157.016 34.2071 154.254 28.4872 150.799 23.2096C147.337 17.9319 143.182 13.6289 138.335 10.2854C133.503 6.94937 127.286 5.27762 119.684 5.27762C109.328 5.27762 99.3982 8.4487 89.8959 14.7833C80.3863 21.103 71.5764 29.4467 63.4663 39.8221C55.3489 50.1974 48.0049 61.9821 41.4269 75.1762C34.8638 88.3552 29.2582 101.534 24.6028 114.728C19.9474 127.907 16.3969 140.652 13.9661 152.961C11.55 165.256 10.342 175.796 10.342 184.597C10.342 193.031 11.2922 202.439 13.2001 212.814C15.1005 223.19 18.128 232.943 22.2751 242.081C26.4148 251.212 32.0278 258.858 39.0993 265.021C46.1854 271.175 54.9216 274.257 65.2931 274.257C81.1818 274.257 96.7169 270.733 111.906 263.701C127.109 256.662 141.621 247.958 155.454 237.583C169.28 227.223 182.237 215.888 194.318 203.578C206.413 191.284 217.123 179.859 226.434 169.304C235.759 158.749 243.619 149.962 250.005 142.946C256.407 135.914 260.819 132.21 263.235 131.851L264.797 132.9C264.797 134.325 264.274 135.554 263.235 136.589Z" fill="white" fill-opacity="0.05"/>
<path d="M179.375 135.643C180.34 133.709 181.541 131.535 182.97 129.136C184.384 126.722 186.358 125.508 188.892 125.508C191.411 125.508 193.15 126.482 194.107 128.417C195.05 130.336 195.522 132.427 195.522 134.684C195.522 136.288 195.367 137.735 195.05 139.032C194.741 140.314 194.424 141.76 194.107 143.38C190.63 167.212 188.185 191.276 186.771 215.587C185.342 239.891 184.62 264.135 184.62 288.305C184.62 293.117 184.782 300.277 185.091 309.775C185.408 319.288 186.52 328.794 188.421 338.292C190.306 347.783 193.238 355.992 197.201 362.911C201.149 369.845 206.762 373.316 214.025 373.316C222.887 373.316 231.431 370.812 239.659 365.82C247.895 360.819 255.651 354.29 262.936 346.238C270.206 338.202 276.843 329.026 282.854 318.711C288.865 308.41 294.014 297.87 298.293 287.075C302.558 276.295 305.88 265.912 308.252 255.919C310.632 245.941 311.818 237.088 311.818 229.351C311.818 218.413 309.689 210.37 305.424 205.212C301.144 200.054 293.933 196.186 283.797 193.607C282.545 193.285 281.602 193.045 280.968 192.887C280.342 192.723 280.025 191.838 280.025 190.219C280.025 188.614 280.659 187.662 281.911 187.34C283.171 187.025 284.283 186.86 285.241 186.86C287.126 186.86 289.263 187.34 291.634 188.3C294.014 189.259 295.995 190.069 297.586 190.728C306.448 195.226 312.458 200.849 315.618 207.611C318.786 214.388 320.362 222.604 320.362 232.26C320.362 240.633 319.022 250.049 316.326 260.507C313.637 270.98 309.924 281.528 305.188 292.143C300.437 302.773 294.817 313.238 288.334 323.539C281.838 333.854 274.633 342.947 266.737 350.826C258.826 358.72 250.436 365.085 241.574 369.928C232.72 374.763 223.69 377.185 214.497 377.185C204.383 377.185 196.634 373.796 191.249 367.019C185.872 360.257 181.924 352.131 179.405 342.64C176.871 333.142 175.368 323.239 174.896 312.923C174.41 302.623 174.16 293.927 174.16 286.835C174.16 261.721 175.589 236.848 178.432 212.199C181.283 187.572 183.971 162.706 186.505 137.592C179.552 146.933 172.834 156.349 166.352 165.84C159.855 175.338 153.284 184.911 146.64 194.567L120.535 233.219C113.898 242.875 107.261 252.448 100.617 261.946C93.9577 271.46 87.3135 280.883 80.6693 290.224C68.9646 306.656 58.4458 323.074 49.1129 339.491C39.7653 355.924 31.1396 373.316 23.2432 391.668C22.5949 392.628 22.0351 393.662 21.5637 394.787C21.0923 395.926 20.061 396.496 18.4699 396.496C16.9009 396.496 15.8034 395.686 15.1699 394.067C14.5438 392.463 14.2271 391.016 14.2271 389.719C22.757 367.184 33.4305 345.856 46.2549 325.728C59.0645 305.592 72.434 285.711 86.3559 266.085C93.9577 255.124 101.957 244.412 110.34 233.939C118.708 223.481 126.928 212.933 135.002 202.303C143.075 191.688 150.912 180.825 158.514 169.708C166.101 158.598 173.055 147.241 179.375 135.643Z" fill="white" fill-opacity="0.05"/>
<path d="M196.272 319.732C196.272 321.628 196.846 322.58 198.01 322.58C198.614 322.58 199.277 322.348 199.984 321.891C200.706 321.426 201.288 321.021 201.723 320.661C203.505 319.319 205.082 317.273 206.437 314.514C207.807 311.755 208.809 309.244 209.442 306.988C209.892 305.466 210.135 303.914 210.179 302.34C210.216 300.758 210.238 299.019 210.238 297.122C209.177 297.759 207.954 298.869 206.584 300.45C205.207 302.025 204.117 303.307 203.314 304.289C201.723 306.283 200.146 308.674 198.599 311.455C197.045 314.252 196.272 317.01 196.272 319.732ZM195.093 275.472C195.093 273.118 195.712 271.019 196.949 269.175C198.187 267.315 199.667 265.831 201.398 264.707C203.122 263.567 204.61 262.997 205.848 262.997C206.827 262.997 207.557 263.372 208.028 264.107C208.514 264.826 208.544 266.041 208.116 267.735C207.056 268.02 206.297 268.177 205.848 268.215C205.413 268.26 205.059 268.395 204.787 268.635C204.529 268.86 204.036 269.377 203.314 270.194C201.546 272.173 200.728 273.777 200.868 274.992C201.001 276.214 201.708 277.346 202.99 278.38C204.286 279.422 205.884 280.712 207.792 282.249C209.693 283.77 211.483 285.84 213.155 288.456C215.114 287.099 217.118 285.517 219.166 283.718L231.511 274.932C232.668 274.115 233.669 273.545 234.516 273.223C235.356 272.908 236.085 272.743 236.697 272.743C237.772 272.743 238.229 273.208 238.052 274.122C237.875 275.022 237.028 275.921 235.518 276.821L226.473 283.178C226.119 283.358 225.36 283.883 224.204 284.738C223.04 285.6 221.773 286.552 220.403 287.586C219.026 288.628 217.847 289.595 216.867 290.495C215.902 291.395 215.379 291.979 215.306 292.234C215.203 292.699 215.335 293.554 215.689 294.813C216.042 296.072 216.285 297.722 216.425 299.761C216.558 301.8 216.293 304.274 215.63 307.197C214.959 310.136 213.516 313.54 211.299 317.423C209.354 320.759 207.218 323.218 204.905 324.799C202.607 326.374 200.434 327.168 198.393 327.168C196.544 327.168 195.019 326.539 193.826 325.279C192.633 324.02 192.029 322.168 192.029 319.732C192.029 316.651 192.765 313.66 194.239 310.766C195.69 307.887 197.428 305.226 199.454 302.789C201.494 300.368 203.38 298.276 205.111 296.522C206.835 294.768 207.969 293.479 208.499 292.654C207.439 290.757 206.15 289.108 204.64 287.706C203.144 286.312 201.664 285.03 200.19 283.868C198.732 282.691 197.517 281.454 196.537 280.15C195.572 278.83 195.093 277.271 195.093 275.472Z" fill="white" fill-opacity="0.05"/>
<path d="M244.163 297.932C242.373 297.932 240.789 297.354 239.419 296.192C238.041 295.015 237.003 293.786 236.296 292.504C234.705 289.445 233.799 285.817 233.585 281.619C233.364 277.421 233.614 273.612 234.322 270.194C234.498 269.197 234.734 267.998 235.029 266.596C235.338 265.201 235.802 263.957 236.414 262.877C237.04 261.798 237.806 261.258 238.712 261.258C240.73 261.258 241.725 261.963 241.688 263.357C241.643 264.759 241.275 266.925 240.568 269.864C239.861 272.788 239.507 276.544 239.507 281.139C239.507 282.503 239.684 284.13 240.038 286.027C240.391 287.931 240.936 289.595 241.688 291.035C242.454 292.474 243.404 293.194 244.546 293.194C245.96 293.194 247.581 292.564 249.407 291.305C251.234 290.045 252.914 288.628 254.446 287.046C255.993 285.472 257.083 284.273 257.716 283.448C257.893 283.268 258.372 282.661 259.16 281.619C259.963 280.584 260.913 279.415 262.018 278.11C263.138 276.791 264.228 275.644 265.289 274.662C266.364 273.665 267.211 273.163 267.823 273.163C268.449 273.163 268.765 273.702 268.765 274.782C268.765 275.427 268.338 276.401 267.498 277.721C266.651 279.025 265.65 280.389 264.493 281.829C263.351 283.268 262.224 284.633 261.105 285.907C260 287.166 259.19 288.066 258.659 288.606C257.598 289.685 256.331 290.975 254.858 292.474C253.4 293.958 251.779 295.233 249.997 296.312C248.229 297.392 246.284 297.932 244.163 297.932ZM239.89 244.196C239.89 242.659 240.281 241.332 241.069 240.208C241.872 239.068 242.763 238.498 243.75 238.498C244.811 238.498 245.695 239.18 246.402 240.537C247.654 243.079 247.816 245.05 246.873 246.445C245.945 247.824 244.818 248.514 243.485 248.514C242.601 248.514 241.776 248.154 241.01 247.434C240.259 246.715 239.89 245.635 239.89 244.196Z" fill="white" fill-opacity="0.05"/>
<path d="M263.434 283.718C263.434 281.821 263.876 279.475 264.76 276.671C265.644 273.875 266.882 271.109 268.473 268.365C270.079 265.606 271.927 263.327 274.012 261.528C276.089 259.729 278.284 258.829 280.583 258.829C282.719 258.829 284.45 259.459 285.768 260.718C287.102 261.978 287.897 263.267 288.155 264.587C288.428 265.891 287.986 266.536 286.829 266.536C285.945 266.536 285.039 266.018 284.118 264.976C283.19 263.942 282.1 263.417 280.848 263.417C279.883 263.417 278.712 264.009 277.342 265.186C275.964 266.348 274.292 268.65 272.333 272.083C271.449 273.522 270.631 275.397 269.887 277.691C269.136 279.992 268.767 282.271 268.767 284.528C268.944 284.348 269.003 284.288 268.944 284.348C268.9 284.393 269.062 284.228 269.416 283.868L270.476 282.219C271.183 281.139 271.994 279.752 272.922 278.05C273.865 276.334 274.815 274.595 275.78 272.833C276.76 271.079 277.651 269.587 278.461 268.365C279.264 267.15 279.883 266.536 280.317 266.536C281.923 266.536 282.859 267.128 283.117 268.305C283.389 269.467 283.5 270.906 283.441 272.623C283.396 274.347 283.559 276.056 283.912 277.751C284.442 280.194 285.253 281.979 286.358 283.118C287.477 284.243 288.744 284.797 290.159 284.797C292.648 284.797 295.403 283.268 298.409 280.209C299.646 279.033 300.53 278.065 301.06 277.301C301.605 276.521 302.327 275.644 303.211 274.662C303.815 273.762 304.611 273.313 305.598 273.313C306.578 273.313 306.997 274.152 306.865 275.831C306.725 277.496 304.979 279.992 301.62 283.328L297.613 286.567C295.035 288.366 292.553 289.265 290.159 289.265C287.934 289.265 286.004 288.598 284.354 287.256C282.719 285.899 281.467 284.228 280.583 282.249C279.699 280.254 279.257 278.305 279.257 276.401C278.645 276.866 277.938 277.863 277.135 279.4C276.325 280.922 275.463 282.563 274.542 284.318C273.614 286.079 272.664 287.616 271.684 288.936C270.697 290.24 269.725 290.885 268.767 290.885C266.27 290.885 264.76 290.307 264.23 289.145C263.7 287.968 263.434 286.162 263.434 283.718Z" fill="white" fill-opacity="0.05"/>
<path d="M316.385 311.248V334.067H313.321V306.78H317.004L325.843 319.224L334.712 306.78H338.366V334.067H335.301V311.248L326.197 323.932H325.519L316.385 311.248Z" fill="white" fill-opacity="0.05"/>
<path d="M348.055 334.067H344.667L355.186 306.78H359.222L369.063 334.067H365.675L362.699 325.521H351.237L348.055 334.067ZM352.357 322.522H361.668L357.189 309.538L352.357 322.522Z" fill="white" fill-opacity="0.05"/>
<path d="M392.313 322.732H385.86V319.794H395.495L395.289 333.378C393.933 333.82 392.644 334.105 391.429 334.247C390.228 334.405 388.991 334.487 387.716 334.487C383.098 334.487 379.673 333.228 377.433 330.709C375.209 328.19 374.104 324.756 374.104 320.393C374.104 317.755 374.671 315.386 375.813 313.287C376.947 311.188 378.568 309.523 380.674 308.279C382.796 307.019 385.308 306.382 388.217 306.36C389.786 306.322 391.149 306.495 392.313 306.87C393.491 307.252 394.523 307.642 395.407 308.039L394.346 310.948C393.403 310.573 392.357 310.243 391.223 309.958C390.081 309.681 389.057 309.531 388.158 309.508C386.25 309.493 384.505 309.898 382.914 310.738C381.337 311.577 380.07 312.822 379.113 314.456C378.148 316.075 377.625 318.054 377.551 320.393C377.551 323.092 377.993 325.251 378.877 326.871C379.761 328.49 380.969 329.659 382.501 330.379C384.033 331.099 385.757 331.458 387.687 331.458C388.409 331.458 389.145 331.421 389.897 331.339C390.663 331.241 391.429 331.099 392.195 330.919L392.313 322.732Z" fill="white" fill-opacity="0.05"/>
<path d="M406.473 334.067H403.408V306.78H406.473L421.411 319.404V306.78H424.534V334.067H421.411V323.302L406.473 310.918V334.067Z" fill="white" fill-opacity="0.05"/>
<path d="M450.462 331.039V334.067H432.902V306.78H450.109V309.898H435.966V317.155H449.343V320.034H435.966V331.039H450.462Z" fill="white" fill-opacity="0.05"/>
<path d="M455.978 309.598V306.78H476.396V309.598H467.645V334.067H464.67V309.598H455.978Z" fill="white" fill-opacity="0.05"/>
<path d="M497.407 326.78C497.466 329.022 496.714 330.874 495.168 332.328C493.613 333.767 491.286 334.487 488.185 334.487C486.888 334.487 485.687 334.345 484.59 334.067C483.485 333.79 482.557 333.362 481.791 332.778L482.557 329.929C483.279 330.334 484.126 330.694 485.091 331.009C486.048 331.331 487.183 331.488 488.479 331.488C489.577 331.488 490.571 331.301 491.455 330.919C492.354 330.544 493.076 330.004 493.606 329.299C494.151 328.602 494.409 327.77 494.372 326.81C494.35 325.491 493.849 324.426 492.869 323.602C491.882 322.785 490.49 321.983 488.685 321.203C486.601 320.483 484.951 319.546 483.735 318.384C482.513 317.207 481.879 315.67 481.82 313.766C481.798 312.327 482.13 311.06 482.822 309.958C483.507 308.863 484.487 307.994 485.768 307.349C487.043 306.689 488.523 306.36 490.218 306.36C491.256 306.36 492.177 306.472 492.987 306.689C493.79 306.914 494.46 307.139 494.991 307.379C495.536 307.619 495.904 307.799 496.081 307.919L494.932 310.648C494.122 310.048 493.289 309.673 492.427 309.508C491.558 309.351 490.733 309.298 489.952 309.358C489.068 309.381 488.229 309.568 487.448 309.928C486.66 310.288 486.034 310.783 485.562 311.397C485.091 312.02 484.862 312.739 484.885 313.556C484.899 314.501 485.275 315.371 486.004 316.165C486.726 316.945 487.838 317.65 489.334 318.264C490.254 318.669 491.19 319.119 492.133 319.614C493.076 320.093 493.937 320.663 494.726 321.323C495.506 321.968 496.147 322.732 496.641 323.632C497.127 324.531 497.385 325.581 497.407 326.78Z" fill="white" fill-opacity="0.05"/>
<mask id="mask4_205_1219" style="mask-type:luminance" maskUnits="userSpaceOnUse" x="323" y="195" width="208" height="7">
<path d="M531 195.865H323.571V201.623H531V195.865Z" fill="white"/>
</mask>
<g mask="url(#mask4_205_1219)">
<mask id="mask5_205_1219" style="mask-type:luminance" maskUnits="userSpaceOnUse" x="323" y="196" width="207" height="5">
<path d="M323.799 196.938H529.114V200.161H323.799V196.938Z" fill="white"/>
</mask>
<g mask="url(#mask5_205_1219)">
<path d="M325.596 198.692H527.295" stroke="white" stroke-opacity="0.05" stroke-width="2"/>
</g>
</g>
<mask id="mask6_205_1219" style="mask-type:luminance" maskUnits="userSpaceOnUse" x="523" y="195" width="7" height="140">
<path d="M529.114 195.865H523.457V334.043H529.114V195.865Z" fill="white"/>
</mask>
<g mask="url(#mask6_205_1219)">
<mask id="mask7_205_1219" style="mask-type:luminance" maskUnits="userSpaceOnUse" x="524" y="196" width="5" height="137">
<path d="M524.739 196.938H528.812V332.814H524.739V196.938Z" fill="white"/>
</mask>
<g mask="url(#mask7_205_1219)">
<path d="M526.507 198.699L527.286 331.036" stroke="white" stroke-opacity="0.05" stroke-width="2"/>
</g>
</g>
<mask id="mask8_205_1219" style="mask-type:luminance" maskUnits="userSpaceOnUse" x="197" y="424" width="334" height="6">
<path d="M531 424.243H197.227V430H531V424.243Z" fill="white"/>
</mask>
<g mask="url(#mask8_205_1219)">
<mask id="mask9_205_1219" style="mask-type:luminance" maskUnits="userSpaceOnUse" x="197" y="424" width="333" height="5">
<path d="M197.979 424.475H529.718V428.621H197.979V424.475Z" fill="white"/>
</mask>
<g mask="url(#mask9_205_1219)">
<path d="M527.914 426.725L200.689 426.222" stroke="white" stroke-opacity="0.05" stroke-width="2"/>
</g>
</g>
<mask id="mask10_205_1219" style="mask-type:luminance" maskUnits="userSpaceOnUse" x="525" y="393" width="5" height="36">
<path d="M529.114 393.537H525.343V428.081H529.114V393.537Z" fill="white"/>
</mask>
<g mask="url(#mask10_205_1219)">
<mask id="mask11_205_1219" style="mask-type:luminance" maskUnits="userSpaceOnUse" x="525" y="394" width="4" height="34">
<path d="M525.645 394.534H528.812V427.699H525.645V394.534Z" fill="white"/>
</mask>
<g mask="url(#mask11_205_1219)">
<path d="M527.368 426.214L527.347 396.708" stroke="white" stroke-opacity="0.05" stroke-width="2"/>
</g>
</g>
</svg>
